{"glyphs":{"0":{"ha":736,"x_min":0,"x_max":0,"o":"m 32 483 b 363 -17 32 192 153 -17 b 690 483 569 -17 690 192 b 363 983 690 775 569 983 b 32 483 153 983 32 775 z m 140 422 b 263 932 81 663 113 894 b 583 544 411 968 525 783 b 461 35 642 304 610 71 b 140 422 311 -3 197 183 z "},"1":{"ha":311,"x_min":0,"x_max":0,"o":"m 211 975 l 11 938 l 11 918 l 100 933 l 100 18 l 39 18 l 39 -1 l 272 -1 l 272 18 l 211 18 z "},"2":{"ha":713,"x_min":0,"x_max":0,"o":"m 51 738 l 115 649 b 375 964 139 763 235 964 b 497 685 504 964 531 815 b -36 -1 425 404 161 207 b 618 -1 236 -1 618 -1 b 657 163 618 -1 657 163 l 635 161 l 614 96 l 94 96 b 621 665 233 225 558 454 b 379 986 671 836 561 986 b 51 738 163 986 71 838 z "},"3":{"ha":690,"x_min":0,"x_max":0,"o":"m 69 796 l 122 729 b 343 969 144 815 225 969 b 449 763 453 969 469 835 b 293 544 421 661 328 569 b 213 506 265 524 250 517 l 219 483 b 392 515 285 510 331 532 b 539 279 478 490 542 428 b 324 0 536 147 478 0 b 125 296 158 0 96 150 l 25 261 b 321 -21 0 140 146 -21 b 654 294 522 -21 654 108 b 358 556 654 483 479 579 b 554 742 386 568 519 586 b 347 988 586 883 501 988 b 69 796 164 988 88 874 z "},"4":{"ha":654,"x_min":0,"x_max":0,"o":"m 579 835 l 468 729 l 468 18 l 407 18 l 407 -1 l 640 -1 l 640 18 l 579 18 z m 36 303 l 625 303 l 625 325 l 36 325 z m 36 325 l 106 325 l 589 972 l 454 972 z "},"5":{"ha":674,"x_min":0,"x_max":0,"o":"m 64 599 l 64 597 l 74 568 b 331 650 136 613 238 665 b 531 336 439 633 528 492 b 308 17 533 182 450 17 b 110 308 143 17 81 163 l 10 274 b 306 -6 -17 143 124 -6 b 661 361 535 -6 668 196 b 358 694 653 561 501 676 b 100 606 221 711 122 629 l 183 867 l 653 868 b 678 1017 653 868 678 1017 l 658 1017 l 644 971 l 175 971 z "},"6":{"ha":654,"x_min":0,"x_max":0,"o":"m 31 335 b 331 -14 43 128 161 -14 b 632 335 500 -14 632 128 b 331 682 632 540 500 682 b 129 599 251 682 182 651 b 506 972 203 733 407 904 l 376 972 b 31 335 238 875 13 592 z m 151 588 b 514 446 238 664 415 596 b 515 86 613 296 599 158 b 167 197 431 13 267 49 b 151 588 69 340 64 508 z "},"7":{"ha":626,"x_min":0,"x_max":0,"o":"m 256 0 b 717 972 272 247 582 831 b 63 972 444 972 63 972 b 24 808 63 972 24 808 l 46 810 l 67 875 l 596 875 b 122 0 465 719 124 182 z "},"8":{"ha":681,"x_min":0,"x_max":0,"o":"m 232 522 b 18 275 129 494 18 410 b 335 -19 18 100 156 -19 b 653 275 514 -19 651 100 b 425 557 654 424 542 511 b 578 765 504 579 578 672 b 329 994 578 901 468 994 b 81 765 189 994 81 901 b 257 507 81 658 139 563 b 553 321 329 474 500 411 b 479 31 618 208 581 76 b 132 190 375 -15 229 58 b 154 471 74 271 50 397 b 240 518 188 494 217 510 z m 425 557 b 179 707 344 589 219 632 b 221 960 132 794 135 919 b 497 813 304 999 439 926 b 411 561 556 699 481 582 z "},"9":{"ha":668,"x_min":0,"x_max":0,"o":"m 628 638 b 328 986 614 844 497 986 b 26 638 158 986 26 844 b 328 290 26 432 158 290 b 546 385 428 290 493 332 b 222 0 483 257 321 68 l 351 0 b 628 638 463 114 644 381 z m 507 385 b 144 526 421 308 243 376 b 143 886 46 676 60 814 b 492 775 228 960 392 924 b 507 385 589 632 594 464 z "},"^":{"ha":347,"x_min":0,"x_max":0,"o":""},"Ð":{"ha":347,"x_min":0,"x_max":0,"o":""},"Þ":{"ha":347,"x_min":0,"x_max":0,"o":""},"ð":{"ha":347,"x_min":0,"x_max":0,"o":""},"÷":{"ha":347,"x_min":0,"x_max":0,"o":""},"―":{"ha":347,"x_min":0,"x_max":0,"o":""},"‖":{"ha":347,"x_min":0,"x_max":0,"o":""},"‗":{"ha":347,"x_min":0,"x_max":0,"o":""},"‛":{"ha":347,"x_min":0,"x_max":0,"o":""},"\u0000":{"ha":0,"x_min":0,"x_max":0,"o":""},"\r":{"ha":347,"x_min":0,"x_max":0,"o":""}," ":{"ha":347,"x_min":0,"x_max":0,"o":""},"a":{"ha":583,"x_min":0,"x_max":0,"o":"m 510 1 l 565 1 b 565 517 565 269 565 468 b 353 708 565 635 460 708 b 133 564 214 708 140 611 l 217 539 b 353 694 224 621 250 694 b 454 517 399 694 454 647 l 454 406 b 157 468 426 468 289 533 b 21 258 81 431 21 360 b 293 -14 21 96 138 -14 b 454 90 351 -14 424 21 z m 454 108 b 158 151 393 24 253 38 b 179 454 60 269 81 401 b 454 371 260 497 404 471 z "},"I":{"ha":289,"x_min":0,"x_max":0,"o":"m 207 953 l 268 953 l 268 972 l 21 972 l 21 953 l 82 953 l 82 18 l 21 18 l 21 -1 l 268 -1 l 268 18 l 207 18 z "},"H":{"ha":869,"x_min":0,"x_max":0,"o":"m 207 953 l 268 953 l 268 972 l 21 972 l 21 953 l 82 953 l 82 18 l 21 18 l 21 -1 l 268 -1 l 268 18 l 207 18 l 207 518 l 663 518 l 663 18 l 601 18 l 601 -1 l 849 -1 l 849 18 l 788 18 l 788 953 l 849 953 l 849 972 l 601 972 l 601 953 l 663 953 l 663 538 l 207 538 z "},"o":{"ha":714,"x_min":0,"x_max":0,"o":"m 24 349 b 357 -12 24 135 168 -12 b 690 349 546 -12 690 135 b 357 708 690 561 546 708 b 24 349 168 708 24 561 z m 154 617 b 256 650 181 639 217 650 b 564 467 357 650 483 581 b 565 85 676 307 660 161 b 444 46 533 58 492 46 b 169 203 353 46 246 97 b 154 617 61 353 54 532 z "},"i":{"ha":275,"x_min":0,"x_max":0,"o":"m 83 806 b 139 749 83 771 106 749 b 194 806 172 749 194 771 b 139 861 194 839 172 861 b 83 806 106 861 83 839 z m 193 696 l 21 696 l 21 676 l 82 676 l 82 19 l 21 19 l 21 0 l 254 0 l 254 19 l 193 19 z "},"b":{"ha":771,"x_min":0,"x_max":0,"o":"m 189 972 l 17 972 l 17 953 l 78 953 l 78 0 l 133 0 l 189 115 b 414 -12 206 61 283 -12 b 747 349 606 -12 747 132 b 414 708 747 564 606 708 b 189 622 325 708 247 676 z m 211 618 b 621 467 296 690 506 629 b 622 85 735 306 707 156 b 226 203 538 13 340 42 b 189 264 213 224 200 243 l 189 594 b 211 618 196 603 203 611 z "},"c":{"ha":661,"x_min":0,"x_max":0,"o":"m 24 349 b 343 -12 24 132 151 -12 b 640 207 499 -12 614 85 l 611 218 b 438 43 601 119 540 43 b 164 208 344 43 235 104 b 144 615 56 365 47 529 b 235 643 165 635 199 643 b 511 507 328 643 451 589 l 592 586 b 343 708 538 660 453 708 b 24 349 151 708 24 564 z "},"d":{"ha":715,"x_min":0,"x_max":0,"o":"m 635 0 l 690 0 l 690 972 l 518 972 l 518 953 l 579 953 l 579 583 b 357 708 563 636 486 708 b 24 349 165 708 24 564 b 357 -12 24 132 165 -12 b 579 71 444 -12 521 18 z m 154 617 b 564 467 249 699 449 629 b 579 444 569 458 575 451 l 579 97 b 565 85 575 93 569 89 b 169 203 481 13 283 42 b 154 617 53 365 60 535 z "},"e":{"ha":661,"x_min":0,"x_max":0,"o":"m 24 349 b 343 -12 24 132 151 -12 b 640 207 499 -12 614 85 l 611 218 b 436 44 601 118 540 44 b 164 208 346 44 239 100 b 163 211 164 210 163 211 l 158 218 b 157 221 158 219 158 219 l 601 582 b 343 708 547 656 453 708 b 24 349 151 708 24 564 z m 144 239 b 144 615 53 392 51 533 b 238 646 169 638 203 646 b 499 524 333 646 451 579 z "},"f":{"ha":431,"x_min":0,"x_max":0,"o":"m 193 694 b 236 928 194 771 192 889 b 438 846 297 982 401 894 l 438 846 b 497 904 457 863 500 900 b 354 974 465 946 417 974 b 82 694 154 972 81 826 l 82 19 l 21 19 l 21 0 l 254 0 l 254 19 l 193 19 z m 21 675 l 414 675 l 414 694 l 21 694 z "},"l":{"ha":275,"x_min":0,"x_max":0,"o":"m 193 972 l 21 972 l 21 953 l 82 953 l 82 18 l 21 18 l 21 -1 l 254 -1 l 254 18 l 193 18 z "},"g":{"ha":693,"x_min":0,"x_max":0,"o":"m 25 408 b 132 169 25 306 64 222 b 85 -11 110 144 40 65 b 147 -49 96 -29 118 -42 b 67 -178 93 -76 67 -125 b 331 -299 67 -269 165 -299 b 639 -82 617 -299 639 -183 b 332 53 639 65 560 53 b 143 161 210 53 47 47 b 329 107 193 126 256 107 b 638 408 515 107 638 228 b 539 639 638 506 601 586 b 685 763 607 657 665 686 b 617 789 686 768 639 782 b 518 654 607 747 567 672 b 329 708 468 689 403 708 b 25 408 147 708 25 588 z m 136 632 b 218 656 158 649 186 656 b 485 504 300 656 407 603 b 521 182 590 369 601 242 b 438 158 499 167 469 158 b 172 307 356 158 249 210 b 136 632 65 443 56 572 z m 157 -51 b 269 -61 189 -58 228 -61 b 524 -51 356 -61 453 -51 b 624 -83 582 -51 624 -58 b 331 -186 624 -189 417 -186 b 157 -51 193 -186 49 -175 z "},"h":{"ha":725,"x_min":0,"x_max":0,"o":"m 193 972 l 21 972 l 21 953 l 82 953 l 82 19 l 21 19 l 21 0 l 254 0 l 254 19 l 193 19 l 193 521 b 379 675 208 563 279 675 b 536 489 525 675 536 563 l 536 19 l 475 19 l 475 0 l 708 0 l 708 19 l 647 19 l 647 518 b 432 701 647 588 586 701 b 193 558 275 701 204 590 z "},"n":{"ha":725,"x_min":0,"x_max":0,"o":"m 193 694 l 21 694 l 21 675 l 82 675 l 82 18 l 21 18 l 21 -1 l 254 -1 l 254 18 l 193 18 l 193 521 b 379 675 208 563 279 675 b 536 489 525 675 536 563 l 536 18 l 475 18 l 475 -1 l 708 -1 l 708 18 l 647 18 l 647 518 b 432 701 647 588 586 701 b 193 558 275 701 204 590 z "},"m":{"ha":1142,"x_min":0,"x_max":0,"o":"m 193 694 l 21 694 l 21 675 l 82 675 l 82 18 l 21 18 l 21 -1 l 256 -1 l 256 18 l 193 18 l 193 521 b 369 675 207 563 275 675 b 518 489 507 675 518 563 l 518 18 l 457 18 l 457 -1 l 692 -1 l 692 18 l 629 18 l 629 518 b 629 529 629 522 629 525 b 803 674 646 572 710 674 b 951 489 942 674 951 563 l 951 18 l 892 18 l 892 -1 l 1124 -1 l 1124 18 l 1064 18 l 1064 518 b 853 701 1064 588 999 701 b 625 556 706 701 635 588 b 419 701 607 622 540 701 b 193 558 271 701 204 590 z "},"p":{"ha":772,"x_min":0,"x_max":0,"o":"m 193 694 l 21 694 l 21 675 l 82 675 l 82 -258 l 21 -258 l 21 -278 l 254 -278 l 254 -258 l 193 -258 l 193 111 b 415 -14 210 58 286 -14 b 749 346 607 -14 749 131 b 415 707 749 563 607 707 b 193 624 328 707 251 676 z m 618 76 b 522 46 594 56 561 46 b 193 250 396 46 257 143 l 193 597 b 196 600 194 599 194 599 l 204 607 b 207 610 206 608 206 608 b 324 647 236 635 278 647 b 603 492 415 647 528 599 b 618 76 719 329 703 147 z "},"q":{"ha":775,"x_min":0,"x_max":0,"o":"m 582 -279 l 754 -279 l 754 -260 l 693 -260 l 693 694 l 638 694 l 582 578 b 357 706 565 632 488 706 b 24 344 165 706 24 561 b 357 -15 24 129 165 -15 b 582 71 446 -15 524 17 z m 464 44 b 150 226 365 44 233 110 b 149 608 36 388 64 538 b 265 646 178 633 219 646 b 582 429 407 646 518 547 l 582 99 b 464 44 550 60 517 44 z "},"r":{"ha":582,"x_min":0,"x_max":0,"o":"m 193 694 l 21 694 l 21 675 l 82 675 l 82 18 l 21 18 l 21 -1 l 254 -1 l 254 18 l 193 18 l 193 508 b 386 642 225 614 296 660 b 503 544 432 632 464 596 l 565 607 b 392 694 533 649 467 694 b 193 544 281 694 207 590 z "},"t":{"ha":268,"x_min":0,"x_max":0,"o":"m 157 806 b 21 694 124 756 64 714 l 46 676 l 46 139 b 160 -7 46 68 33 -7 b 243 36 207 -7 228 21 l 229 54 b 157 139 213 36 157 -28 z m 21 675 l 247 675 l 247 694 l 21 694 z "},"u":{"ha":676,"x_min":0,"x_max":0,"o":"m 588 0 l 643 0 l 643 694 l 471 694 l 471 675 l 532 675 l 532 160 b 346 25 517 118 446 25 b 189 206 200 25 189 132 l 189 694 l 17 694 l 17 675 l 78 675 l 78 176 b 293 -7 78 107 139 -7 b 532 122 450 -7 521 90 l 532 96 z "},"j":{"ha":207,"x_min":0,"x_max":0,"o":"m 175 694 l 3 694 l 3 675 l 64 675 l 64 -156 b 40 -283 64 -226 71 -264 b -11 -278 19 -296 -3 -283 l -24 -292 b 88 -301 -14 -299 31 -315 b 175 -197 160 -283 175 -247 z m 56 806 b 111 749 56 771 78 749 b 167 806 144 749 167 771 b 111 861 167 839 144 861 b 56 806 78 861 56 839 z "},"k":{"ha":679,"x_min":0,"x_max":0,"o":"m 193 974 l 21 974 l 21 954 l 82 954 l 82 18 l 21 18 l 21 -1 l 254 -1 l 254 18 l 193 18 l 193 253 l 286 363 l 485 1 l 661 1 l 661 22 l 600 22 l 365 451 l 550 674 l 606 674 l 606 694 l 401 694 l 401 674 b 418 546 504 674 460 594 l 193 286 z "},"v":{"ha":747,"x_min":0,"x_max":0,"o":"m 381 -14 l 675 675 l 728 675 l 728 694 l 550 694 l 550 675 b 604 563 606 675 631 625 l 424 142 l 193 675 l 268 675 l 268 694 l 19 694 l 19 675 l 72 675 l 369 -14 z "},"s":{"ha":557,"x_min":0,"x_max":0,"o":"m 22 517 b 432 122 8 267 444 336 b 267 4 425 14 314 1 b 69 158 136 13 104 101 l 22 114 b 272 -11 57 58 129 -8 b 535 165 406 -14 522 44 b 125 575 558 419 111 360 b 296 692 132 682 243 694 b 458 563 407 685 435 600 l 506 608 b 292 707 481 646 428 704 b 22 517 140 710 31 643 z "},"x":{"ha":782,"x_min":0,"x_max":0,"o":"m 217 675 l 308 675 l 308 694 l 19 694 l 19 675 l 81 675 l 338 328 l 101 19 l 49 19 l 49 0 l 238 0 l 238 19 b 206 124 182 19 169 78 l 350 311 l 565 19 l 474 19 l 474 0 l 763 0 l 763 19 l 703 19 l 436 379 l 661 675 l 714 675 l 714 694 l 525 694 l 525 675 b 553 567 581 675 589 613 l 422 399 z "},"w":{"ha":1042,"x_min":0,"x_max":0,"o":"m 357 -14 l 521 413 l 688 -14 l 708 -14 l 974 675 l 1022 675 l 1022 694 l 844 694 l 844 675 b 907 563 894 675 931 625 l 746 140 l 538 675 l 601 675 l 601 694 l 371 694 l 371 675 l 418 675 l 510 442 l 394 140 l 186 675 l 254 675 l 254 694 l 19 694 l 19 675 l 67 675 l 336 -14 z "},"y":{"ha":747,"x_min":0,"x_max":0,"o":"m 169 -293 b 340 -110 233 -278 294 -224 l 374 -26 l 674 674 l 729 674 l 729 693 l 535 693 l 535 674 b 596 546 590 674 631 625 l 422 142 l 192 674 l 267 674 l 267 693 l 18 693 l 18 674 l 71 674 l 361 -3 l 317 -110 b 128 -211 286 -182 194 -196 z "},"z":{"ha":628,"x_min":0,"x_max":0,"o":"m 590 -1 l 590 0 l 592 0 l 611 161 l 592 161 b 396 21 558 65 501 21 l 171 21 l 606 694 l 89 694 l 68 532 l 88 532 b 326 674 125 640 192 674 l 451 674 l 17 0 z "},".":{"ha":174,"x_min":0,"x_max":0,"o":"m 32 65 b 89 4 32 29 56 4 b 146 65 121 4 146 29 b 89 126 146 101 121 126 b 32 65 56 126 32 101 z "},"@":{"ha":969,"x_min":0,"x_max":0,"o":"m 169 296 b 449 17 169 128 289 17 b 615 67 511 17 571 35 l 671 21 l 725 21 b 947 357 904 29 947 256 b 483 819 947 633 763 819 b 21 357 206 819 21 633 b 483 -107 21 78 206 -107 l 483 -85 b 43 357 219 -85 43 92 b 483 796 43 619 219 796 b 924 357 747 796 924 619 b 725 36 924 264 883 63 b 725 536 725 318 725 489 b 461 731 725 668 607 731 b 275 624 360 731 275 678 b 369 561 275 581 315 567 b 169 296 250 529 169 429 z m 614 521 b 464 571 574 558 517 567 b 310 624 386 578 311 576 b 460 710 308 667 378 710 b 614 536 572 710 614 653 z m 279 501 b 360 525 300 518 328 525 b 614 393 442 525 549 474 l 613 85 b 524 63 589 69 557 63 b 292 183 447 63 354 100 b 279 501 206 296 200 439 z "},"A":{"ha":949,"x_min":0,"x_max":0,"o":"m 453 986 l 68 21 l 7 21 l 7 1 l 282 1 l 282 21 b 194 281 169 21 133 125 l 240 397 l 578 397 l 732 21 l 649 21 l 649 1 l 931 1 l 931 21 l 867 21 l 472 986 z m 249 417 l 407 815 l 569 417 z "},"O":{"ha":986,"x_min":0,"x_max":0,"o":"m 31 488 b 493 -14 31 188 226 -14 b 956 488 760 -14 956 188 b 493 986 956 786 760 986 b 31 488 226 986 31 786 z m 207 861 b 365 903 247 889 303 903 b 807 665 511 903 694 825 b 785 114 965 442 919 213 b 607 64 740 81 676 64 b 190 282 465 64 297 133 b 207 861 29 508 69 767 z "},"V":{"ha":965,"x_min":0,"x_max":0,"o":"m 499 -14 l 883 953 l 944 953 l 944 972 l 669 972 l 669 953 b 757 692 782 953 818 847 l 544 157 l 219 953 l 303 953 l 303 972 l 21 972 l 21 953 l 85 953 l 479 -14 z "},"B":{"ha":722,"x_min":0,"x_max":0,"o":"m 538 335 b 557 64 614 226 618 115 b 407 18 522 36 476 15 l 207 19 l 207 485 b 538 335 340 485 440 471 z m 207 951 b 471 810 276 951 399 913 b 504 544 549 701 565 594 b 206 503 443 494 297 503 z m 21 972 l 21 953 l 82 953 l 82 19 l 21 19 l 21 0 l 407 0 b 618 72 478 -3 569 28 b 692 256 661 113 692 175 b 411 496 692 399 586 496 b 542 550 450 499 510 522 b 615 731 586 589 615 650 b 344 972 615 874 521 972 z "},"P":{"ha":696,"x_min":0,"x_max":0,"o":"m 208 949 b 514 792 286 949 432 906 b 542 493 600 669 610 549 b 208 444 468 432 314 444 z m 21 972 l 21 953 l 82 953 l 82 19 l 21 19 l 21 0 l 269 0 l 269 19 l 208 19 l 208 424 l 376 424 b 571 490 461 424 525 451 b 667 701 628 539 667 611 b 363 972 667 863 561 972 z "},"C":{"ha":906,"x_min":0,"x_max":0,"o":"m 31 488 b 474 -12 31 188 207 -12 b 885 292 689 -12 849 122 l 844 307 b 597 63 829 157 754 63 b 183 293 458 63 288 142 b 194 861 28 518 67 746 b 319 903 226 890 271 903 b 721 707 467 903 657 796 l 818 817 b 474 986 743 919 625 986 b 31 488 207 986 31 786 z "},"D":{"ha":868,"x_min":0,"x_max":0,"o":"m 207 972 l 21 972 l 21 953 l 82 953 l 82 18 l 21 18 l 21 -1 l 375 0 b 838 488 711 0 838 188 b 375 972 838 786 642 972 b 207 972 304 972 265 972 z m 207 953 b 686 665 365 961 556 850 b 760 207 817 481 824 322 b 375 18 685 71 544 18 l 207 18 z "},"E":{"ha":757,"x_min":0,"x_max":0,"o":"m 21 0 l 713 0 l 731 196 l 711 196 b 433 21 669 76 575 21 l 207 21 l 207 524 l 235 524 b 508 404 376 524 508 524 l 528 404 l 528 663 l 508 663 b 235 543 508 543 376 543 l 207 543 l 207 951 l 392 951 b 669 776 533 951 628 896 l 689 776 l 671 972 l 21 972 l 21 953 l 82 953 l 82 19 l 21 19 z "},"F":{"ha":710,"x_min":0,"x_max":0,"o":"m 21 0 l 268 0 l 268 19 l 207 19 l 207 522 l 235 522 b 508 403 376 522 468 522 l 528 403 l 528 663 l 508 663 b 235 543 467 543 376 543 l 207 543 l 207 951 l 392 951 b 669 776 533 951 628 896 l 689 776 l 671 972 l 21 972 l 21 953 l 82 953 l 82 19 l 21 19 z "},"G":{"ha":894,"x_min":0,"x_max":0,"o":"m 21 488 b 464 -12 21 188 197 -12 b 747 85 576 -12 675 25 l 747 71 l 864 15 l 864 458 l 521 458 l 521 439 l 747 439 l 747 113 b 588 63 707 79 650 63 b 174 293 449 63 278 142 b 185 861 18 518 57 746 b 310 903 217 890 261 903 b 711 707 457 903 647 796 l 808 817 b 464 986 733 919 615 986 b 21 488 197 986 21 786 z "},"J":{"ha":532,"x_min":0,"x_max":0,"o":"m 450 953 l 511 953 l 511 972 l 264 972 l 264 953 l 325 953 l 325 268 b 283 33 324 192 328 72 b 108 147 222 -21 142 104 l 22 57 b 165 -12 54 15 103 -12 b 450 268 379 -11 451 136 z "},"K":{"ha":794,"x_min":0,"x_max":0,"o":"m 207 953 l 268 953 l 268 972 l 21 972 l 21 953 l 82 953 l 82 19 l 21 19 l 21 0 l 268 0 l 268 19 l 207 19 l 207 350 l 321 490 l 572 19 l 511 19 l 511 0 l 774 0 l 774 19 l 713 19 l 406 597 l 693 953 l 756 953 l 756 972 l 492 972 l 492 953 b 525 779 582 953 597 869 l 207 383 z "},"L":{"ha":750,"x_min":0,"x_max":0,"o":"m 207 953 l 268 953 l 268 972 l 21 972 l 21 953 l 82 953 l 82 18 l 21 18 l 21 -1 l 699 -1 l 731 196 l 711 196 b 433 21 669 76 575 21 l 207 21 z "},"R":{"ha":774,"x_min":0,"x_max":0,"o":"m 21 19 l 21 0 l 269 0 l 269 19 l 207 19 l 207 444 l 326 446 l 564 0 l 754 0 l 754 19 l 693 19 b 476 426 608 178 561 268 b 378 450 433 429 406 436 b 542 496 436 444 496 461 b 647 713 608 547 647 633 b 353 975 647 868 546 975 l 21 972 l 21 953 l 82 953 l 82 19 z m 343 467 l 207 465 l 207 951 b 494 801 282 951 415 913 b 528 511 578 685 592 564 b 343 467 494 482 443 468 z "},"S":{"ha":740,"x_min":0,"x_max":0,"o":"m 32 731 b 574 185 13 406 590 476 b 332 15 565 28 415 10 b 88 219 181 26 133 140 l 31 164 b 358 -7 76 88 172 -3 b 708 233 538 -10 693 69 b 165 792 738 560 149 490 b 397 956 174 943 322 960 b 611 786 539 947 581 853 l 669 842 b 389 978 624 900 567 974 b 32 731 186 982 42 890 z "},"T":{"ha":783,"x_min":0,"x_max":0,"o":"m 454 953 l 463 953 b 740 776 604 953 699 896 l 760 776 l 742 972 l 42 972 l 24 776 l 43 776 b 321 953 85 896 179 953 l 329 953 l 329 18 l 268 18 l 268 -1 l 515 -1 l 515 18 l 454 18 z "},"U":{"ha":847,"x_min":0,"x_max":0,"o":"m 207 953 l 268 953 l 268 972 l 21 972 l 21 953 l 82 953 l 82 338 b 450 -21 82 64 238 -21 b 765 338 664 -21 765 103 l 765 953 l 826 953 l 826 972 l 581 972 l 581 953 b 744 686 707 953 744 779 l 744 338 b 457 3 744 121 657 3 b 207 338 263 3 207 142 z "},"W":{"ha":1376,"x_min":0,"x_max":0,"o":"m 472 -14 l 693 593 l 915 -14 l 944 -14 l 1294 953 l 1356 953 l 1356 972 l 1081 972 l 1081 953 b 1178 692 1183 953 1235 847 l 985 157 l 693 954 l 776 954 l 776 974 l 496 974 l 496 954 l 560 954 l 681 624 l 513 157 l 218 951 l 301 951 l 301 971 l 21 971 l 21 951 l 85 951 l 443 -14 z "},"X":{"ha":929,"x_min":0,"x_max":0,"o":"m 519 518 l 847 953 l 908 953 l 908 972 l 633 972 l 633 953 b 701 794 708 953 761 874 l 507 536 l 253 953 l 357 953 l 357 972 l 33 972 l 33 953 l 104 953 l 410 456 l 82 19 l 21 19 l 21 0 l 296 0 l 296 19 b 228 178 221 19 168 99 l 422 436 l 679 18 l 575 18 l 575 -1 l 894 -1 l 894 18 l 826 18 z "},"Y":{"ha":888,"x_min":0,"x_max":0,"o":"m 229 953 l 313 953 l 313 972 l 21 972 l 21 953 l 85 953 l 388 418 l 388 18 l 326 18 l 326 -1 l 574 -1 l 574 18 l 513 18 l 513 453 l 806 953 l 867 953 l 867 972 l 603 972 l 603 953 b 688 794 688 953 735 876 l 501 474 z "},"Z":{"ha":732,"x_min":0,"x_max":0,"o":"m 690 0 l 708 190 l 689 190 b 411 19 647 71 553 19 l 179 19 l 707 972 l 110 972 l 92 782 l 111 782 b 389 953 153 901 247 953 l 553 953 l 25 0 z "},"N":{"ha":824,"x_min":0,"x_max":0,"o":"m 21 0 l 283 0 l 283 19 b 103 290 171 19 103 126 l 103 850 l 732 -14 l 742 -14 l 742 953 l 803 953 l 803 972 l 540 972 l 540 953 b 721 682 653 953 721 846 l 721 226 l 175 972 l 21 972 l 21 953 l 82 953 l 82 19 l 21 19 z "},"Q":{"ha":985,"x_min":0,"x_max":0,"o":"m 31 488 b 493 -14 31 188 226 -14 b 956 488 760 -14 956 188 b 493 986 956 786 760 986 b 31 488 226 986 31 786 z m 207 861 b 807 665 344 956 647 892 b 785 114 965 442 919 213 b 190 282 650 15 350 58 b 207 861 29 508 69 767 z m 550 99 l 569 79 b 919 -142 718 -69 828 -143 l 926 -39 b 599 85 835 -43 756 -36 l 556 118 z "},"M":{"ha":1076,"x_min":0,"x_max":0,"o":"m 21 0 l 283 0 l 283 19 b 103 290 171 19 103 126 l 103 926 l 488 -24 l 869 913 l 869 19 l 808 19 l 808 0 l 1056 0 l 1056 19 l 994 19 l 994 953 l 1056 953 l 1056 972 l 869 972 l 869 971 l 544 169 l 219 972 l 21 972 l 21 953 l 82 953 l 82 19 l 21 19 z "},"ß":{"ha":761,"x_min":0,"x_max":0,"o":"m 206 694 b 249 932 207 771 208 889 b 447 817 313 1000 426 901 b 311 503 486 660 332 624 b 588 125 282 332 599 301 b 281 147 578 -33 340 -56 l 247 117 b 690 168 311 -86 671 -44 b 358 514 710 369 376 386 b 511 857 344 619 546 721 b 313 972 488 950 369 978 b 94 694 171 960 93 826 l 94 19 l 33 19 l 33 0 l 206 0 z "},"%":{"ha":796,"x_min":0,"x_max":0,"o":"m 28 747 b 207 531 28 619 92 531 b 386 747 319 531 386 619 b 207 965 386 875 319 965 b 28 747 92 965 28 875 z m 86 721 b 153 940 54 826 69 924 b 328 775 233 957 296 879 b 261 556 360 669 342 571 b 86 721 179 539 118 617 z m 31 11 l 72 11 l 739 972 l 697 972 z m 400 250 b 579 33 400 122 464 33 b 758 250 692 33 758 122 b 579 468 758 378 692 468 b 400 250 464 468 400 378 z m 458 224 b 525 443 426 329 442 426 b 700 278 606 460 668 382 b 633 58 732 172 714 74 b 458 224 551 42 490 119 z "},"€":{"ha":878,"x_min":0,"x_max":0,"o":"m 6 488 b 449 -12 6 188 182 -12 b 860 292 664 -12 824 122 l 819 307 b 738 117 811 228 781 154 b 158 293 610 4 313 71 b 169 861 3 518 42 746 b 696 707 299 976 610 825 l 793 817 b 449 986 718 919 600 986 b 6 488 182 986 6 786 z m -44 503 l 350 503 l 350 524 l -44 524 z m -44 443 l 350 443 l 350 464 l -44 464 z "},"$":{"ha":739,"x_min":0,"x_max":0,"o":"m 29 731 b 571 185 10 406 588 476 b 329 15 563 28 413 10 b 71 206 178 26 117 126 l 28 164 b 356 -7 74 88 169 -3 b 706 233 535 -10 690 69 b 163 786 735 560 146 490 b 396 956 171 943 319 960 b 622 800 536 947 576 860 l 667 842 b 386 978 621 900 564 974 b 29 731 183 982 39 890 z m 349 -50 l 369 -50 l 369 1008 l 349 1008 z "},"¢":{"ha":681,"x_min":0,"x_max":0,"o":"m 31 446 b 350 85 31 229 158 85 b 647 304 506 85 621 182 l 618 315 b 556 181 613 258 588 208 b 171 306 458 94 275 154 b 151 713 63 463 54 626 b 518 604 226 779 435 718 l 599 683 b 350 806 544 757 460 806 b 31 446 158 806 31 661 z m 328 7 l 349 7 l 349 869 l 328 869 z "},"£":{"ha":683,"x_min":0,"x_max":0,"o":"m 0 0 b 618 0 272 0 618 0 b 657 163 618 0 657 163 l 635 161 l 614 90 l 206 90 l 206 694 b 260 943 207 771 215 904 b 467 694 321 997 440 857 l 563 765 b 325 974 540 921 388 974 b 81 694 167 972 79 826 l 81 90 b 0 0 54 40 24 36 z m 28 453 l 461 453 l 461 474 l 28 474 z m 28 397 l 461 397 l 461 418 l 28 418 z "},"¥":{"ha":797,"x_min":0,"x_max":0,"o":"m 178 953 l 261 953 l 261 972 l -31 972 l -31 953 l 33 953 l 336 418 l 336 417 l 190 417 l 190 396 l 336 396 l 336 361 l 190 361 l 190 340 l 336 340 l 336 18 l 275 18 l 275 -1 l 522 -1 l 522 18 l 461 18 l 461 340 l 624 340 l 624 361 l 461 361 l 461 396 l 624 396 l 624 417 l 461 417 l 461 453 l 754 953 l 814 953 l 814 972 l 618 972 l 618 953 b 663 840 682 953 704 913 l 450 474 z "},",":{"ha":142,"x_min":0,"x_max":0,"o":"m 14 65 b 71 4 14 29 38 4 b 122 38 93 4 113 17 b 31 -35 117 -22 31 -35 b 65 -51 31 -35 50 -51 b 128 65 119 -49 128 35 b 71 126 128 101 103 126 b 14 65 38 126 14 101 z "},":":{"ha":169,"x_min":0,"x_max":0,"o":"m 26 561 b 83 500 26 525 50 500 b 140 561 115 500 140 525 b 83 622 140 597 115 622 b 26 561 50 622 26 597 z m 26 75 b 83 14 26 39 50 14 b 140 75 115 14 140 39 b 83 136 140 111 115 136 b 26 75 50 136 26 111 z "},";":{"ha":175,"x_min":0,"x_max":0,"o":"m 35 567 b 92 506 35 531 58 506 b 149 567 124 506 149 531 b 92 628 149 603 124 628 b 35 567 58 628 35 603 z m 33 71 b 90 10 33 35 57 10 b 142 43 113 10 132 22 b 50 -29 136 -17 50 -29 b 85 -46 50 -29 69 -46 b 147 71 139 -43 147 40 b 90 132 147 107 122 132 b 33 71 57 132 33 107 z "},"-":{"ha":593,"x_min":0,"x_max":0,"o":"m 35 389 l 560 389 l 560 424 l 35 424 z "},"–":{"ha":694,"x_min":0,"x_max":0,"o":"m 35 389 l 685 389 l 685 424 l 35 424 z "},"—":{"ha":914,"x_min":0,"x_max":0,"o":"m 35 389 l 879 389 l 879 424 l 35 424 z "},"•":{"ha":347,"x_min":0,"x_max":0,"o":"m 19 449 b 167 292 19 356 81 292 b 313 449 249 292 313 356 b 167 606 313 542 249 606 b 19 449 81 606 19 542 z "},"·":{"ha":178,"x_min":0,"x_max":0,"o":"m 26 446 b 83 385 26 410 50 385 b 140 446 115 385 140 410 b 83 507 140 482 115 507 b 26 446 50 507 26 482 z "},"…":{"ha":408,"x_min":0,"x_max":0,"o":"m 11 65 b 68 4 11 29 35 4 b 125 65 100 4 125 29 b 68 126 125 101 100 126 b 11 65 35 126 11 101 z m 147 65 b 204 4 147 29 171 4 b 261 65 236 4 261 29 b 204 126 261 101 236 126 b 147 65 171 126 147 101 z m 283 65 b 340 4 283 29 307 4 b 397 65 372 4 397 29 b 340 126 397 101 372 126 b 283 65 307 126 283 101 z "},"“":{"ha":324,"x_min":0,"x_max":0,"o":"m 138 778 b 81 839 138 814 114 839 b 29 806 58 839 39 826 b 121 878 35 865 121 878 b 86 894 121 878 101 894 b 24 778 32 892 24 808 b 81 717 24 742 49 717 b 138 778 114 717 138 742 z m 290 778 b 233 839 290 814 267 839 b 182 806 211 839 192 826 b 274 878 188 865 274 878 b 239 894 274 878 254 894 b 176 778 185 892 176 808 b 233 717 176 742 201 717 b 290 778 267 717 290 742 z "},"‘":{"ha":231,"x_min":0,"x_max":0,"o":"m 165 778 b 108 839 165 814 142 839 b 57 806 86 839 67 826 b 149 878 63 865 149 878 b 114 894 149 878 129 894 b 51 778 60 892 51 808 b 108 717 51 742 76 717 b 165 778 142 717 165 742 z "},"’":{"ha":210,"x_min":0,"x_max":0,"o":"m 51 833 b 108 772 51 797 75 772 b 160 806 131 772 150 785 b 68 733 154 746 68 733 b 103 717 68 733 88 717 b 165 833 157 719 165 803 b 108 894 165 869 140 894 b 51 833 75 894 51 869 z "},"‚":{"ha":175,"x_min":0,"x_max":0,"o":"m 33 72 b 90 11 33 36 57 11 b 142 44 113 11 132 24 b 50 -28 136 -15 50 -28 b 85 -44 50 -28 69 -44 b 147 72 139 -42 147 42 b 90 133 147 108 122 133 b 33 72 57 133 33 108 z "},"”":{"ha":331,"x_min":0,"x_max":0,"o":"m 24 833 b 81 772 24 797 47 772 b 132 806 103 772 122 785 b 40 733 126 746 40 733 b 75 717 40 733 60 717 b 138 833 129 719 138 803 b 81 894 138 869 113 894 b 24 833 47 894 24 869 z m 176 833 b 233 772 176 797 200 772 b 285 806 256 772 275 785 b 193 733 279 746 193 733 b 228 717 193 733 213 717 b 290 833 282 719 290 803 b 233 894 290 869 265 894 b 176 833 200 894 176 869 z "},"„":{"ha":326,"x_min":0,"x_max":0,"o":"m 22 71 b 79 10 22 35 46 10 b 131 43 101 10 121 22 b 39 -29 125 -17 39 -29 b 74 -46 39 -29 58 -46 b 136 71 128 -43 136 40 b 79 132 136 107 111 132 b 22 71 46 132 22 107 z m 175 71 b 232 10 175 35 199 10 b 283 43 254 10 274 22 b 192 -29 278 -17 192 -29 b 226 -46 192 -29 211 -46 b 289 71 281 -43 289 40 b 232 132 289 107 264 132 b 175 71 199 132 175 107 z "},"‹":{"ha":306,"x_min":0,"x_max":0,"o":"m 31 360 l 253 111 l 282 111 l 60 360 l 282 608 l 253 608 z "},"›":{"ha":303,"x_min":0,"x_max":0,"o":"m 274 360 l 51 608 l 22 608 l 244 360 l 22 111 l 51 111 z "},"«":{"ha":433,"x_min":0,"x_max":0,"o":"m 31 360 l 253 111 l 282 111 l 60 360 l 282 608 l 253 608 z m 142 360 l 364 111 l 393 111 l 171 360 l 393 608 l 364 608 z "},"»":{"ha":415,"x_min":0,"x_max":0,"o":"m 385 360 l 163 608 l 133 608 l 356 360 l 133 111 l 163 111 z m 274 360 l 51 608 l 22 608 l 244 360 l 22 111 l 51 111 z "},"/":{"ha":572,"x_min":0,"x_max":0,"o":"m 40 -94 l 64 -94 l 532 972 l 508 972 z "},"\\":{"ha":578,"x_min":0,"x_max":0,"o":"m 67 972 l 43 972 l 511 -94 l 535 -94 z "},"?":{"ha":617,"x_min":0,"x_max":0,"o":"m 64 715 l 182 675 b 351 956 164 792 200 972 b 417 685 532 936 492 794 b 189 161 213 386 200 404 l 217 161 b 540 665 213 440 471 497 b 356 978 592 789 538 964 b 64 715 128 994 42 818 z m 151 65 b 200 14 151 35 172 14 b 249 65 228 14 249 35 b 200 117 249 96 228 117 b 151 65 172 117 151 96 z "},"!":{"ha":232,"x_min":0,"x_max":0,"o":"m 99 160 l 126 160 l 175 958 l 57 958 z m 64 65 b 113 14 64 35 85 14 b 161 65 140 14 161 35 b 113 117 161 96 140 117 b 64 65 85 117 64 96 z "},"¿":{"ha":636,"x_min":0,"x_max":0,"o":"m 610 44 l 546 133 b 286 -182 522 19 426 -182 b 164 97 157 -182 132 -33 b 399 621 238 403 408 457 l 364 619 b 40 117 374 453 103 328 b 282 -204 -10 -54 100 -204 b 610 44 499 -204 590 -56 z m 436 717 b 379 778 436 753 413 778 b 322 717 347 778 322 753 b 379 656 322 681 347 656 b 436 717 413 656 436 681 z "},"¡":{"ha":210,"x_min":0,"x_max":0,"o":"m 119 636 l 85 636 l 57 -176 l 147 -176 z m 158 731 b 101 792 158 767 135 792 b 44 731 69 792 44 767 b 101 669 44 694 69 669 b 158 731 135 669 158 694 z "},"(":{"ha":301,"x_min":0,"x_max":0,"o":"m 274 -83 l 274 -61 b 44 471 65 -39 44 317 b 274 1006 44 625 65 983 l 274 1028 b 24 472 65 1006 24 710 b 274 -83 24 235 65 -61 z "},")":{"ha":303,"x_min":0,"x_max":0,"o":"m 24 1028 l 24 1006 b 253 474 232 983 253 628 b 24 -61 253 319 232 -39 l 24 -83 b 274 472 232 -61 274 235 b 24 1028 274 710 232 1006 z "},"[":{"ha":238,"x_min":0,"x_max":0,"o":"m 28 -69 l 206 -69 l 206 -49 l 49 -49 l 49 1000 l 206 1000 l 206 1021 l 28 1021 z "},"]":{"ha":242,"x_min":0,"x_max":0,"o":"m 204 1021 l 26 1021 l 26 1000 l 183 1000 l 183 -49 l 26 -49 l 26 -69 l 204 -69 z "},"{":{"ha":396,"x_min":0,"x_max":0,"o":"m 357 1028 b 36 475 26 994 244 540 l 36 469 b 200 10 178 421 113 154 b 357 -83 231 -40 278 -75 l 357 -61 b 222 15 292 -54 250 -26 b 111 439 144 138 178 353 b 69 471 101 451 90 468 l 69 472 b 110 497 88 475 99 488 b 229 946 194 581 136 822 b 357 1006 256 981 299 999 z "},"}":{"ha":393,"x_min":0,"x_max":0,"o":"m 26 -83 b 347 469 357 -50 139 404 l 347 475 b 183 935 206 524 271 790 b 26 1028 153 985 106 1019 l 26 1006 b 161 929 92 999 133 971 b 272 506 239 807 206 592 b 314 474 282 493 293 476 l 314 472 b 274 447 296 469 285 457 b 154 -1 189 364 247 122 b 26 -61 128 -36 85 -54 z "},"†":{"ha":499,"x_min":0,"x_max":0,"o":"m 238 -64 l 258 -64 l 258 674 l 475 674 l 475 694 l 258 694 l 258 972 l 238 972 l 238 694 l 21 694 l 21 674 l 238 674 z "},"":{"ha":596,"x_min":0,"x_max":0,"o":"m 21 274 b 300 -6 21 106 140 -6 b 467 44 363 -6 422 13 l 522 -1 l 576 -1 b 576 514 576 285 576 465 b 313 708 576 646 458 708 b 126 601 211 708 126 656 b 221 539 126 558 167 544 b 21 274 101 507 21 407 z m 465 499 b 315 549 425 536 368 544 b 161 601 238 556 163 554 b 311 688 160 644 229 688 b 465 514 424 688 465 631 z m 131 479 b 465 371 206 539 375 482 l 464 63 b 143 161 388 15 235 40 b 131 479 57 274 51 417 z "},"*":{"ha":385,"x_min":0,"x_max":0,"o":"m 144 961 b 194 836 144 931 186 864 b 244 961 207 864 244 931 b 194 1014 244 993 222 1014 b 144 961 165 1014 144 993 z m 69 786 b 194 836 100 786 167 828 b 69 885 167 849 100 885 b 15 836 38 885 15 864 b 69 786 15 807 38 786 z m 319 885 b 194 836 288 885 222 843 b 319 786 222 822 288 786 b 372 836 351 786 372 808 b 319 885 372 865 351 885 z m 244 711 b 194 836 244 742 203 808 b 144 711 181 808 144 742 b 194 657 144 679 167 657 b 244 711 224 657 244 679 z "},"©":{"ha":1090,"x_min":0,"x_max":0,"o":"m 28 481 b 507 0 28 192 219 0 b 988 481 796 0 988 192 b 507 960 988 767 796 960 b 28 481 219 960 28 767 z m 50 481 b 507 936 50 754 232 936 b 964 481 782 936 964 754 b 507 22 964 204 782 22 b 50 481 232 22 50 204 z m 186 478 b 504 117 186 261 313 117 b 803 336 660 117 775 214 l 772 349 b 710 213 767 290 742 242 b 326 338 611 128 429 186 b 306 744 217 494 208 658 b 674 636 381 811 589 750 l 753 715 b 504 838 699 789 614 838 b 186 478 313 838 186 693 z "},"®":{"ha":582,"x_min":0,"x_max":0,"o":"m 25 703 b 293 433 25 540 132 433 b 563 703 456 433 563 540 b 293 971 563 863 456 971 b 25 703 132 971 25 863 z m 46 703 b 293 949 46 850 144 949 b 540 703 442 949 540 850 b 293 454 540 553 442 454 b 46 703 144 454 46 553 z m 179 883 l 179 876 l 201 876 l 201 542 l 179 542 l 179 535 l 269 535 l 269 542 l 249 542 l 247 694 l 269 694 l 351 535 l 431 535 l 431 542 l 407 542 l 317 694 l 315 694 b 371 718 339 697 357 706 b 404 789 390 733 404 758 b 300 882 404 844 368 881 z m 247 874 b 349 821 274 874 321 860 b 361 718 379 779 383 738 b 246 703 336 697 282 703 z "},"#":{"ha":881,"x_min":0,"x_max":0,"o":"m 82 0 l 106 0 l 456 944 l 432 944 z m 364 -3 l 388 -3 l 738 943 l 714 943 z m 114 621 l 853 621 l 853 643 l 114 643 z m 31 329 l 769 329 l 769 351 l 31 351 z "},"§":{"ha":596,"x_min":0,"x_max":0,"o":"m 39 786 b 119 646 35 718 68 676 b 32 515 69 618 38 574 b 450 118 6 268 465 326 b 282 3 443 13 329 1 b 96 114 163 10 131 72 l 61 85 b 288 -11 97 44 140 -8 b 556 185 435 -14 547 50 b 475 325 560 251 526 293 b 563 456 525 353 557 396 b 143 853 589 703 129 644 b 313 967 151 957 264 969 b 499 857 432 960 464 899 l 533 886 b 307 982 497 926 454 979 b 39 786 160 985 47 919 z m 163 624 b 458 414 289 568 467 546 b 432 346 457 385 446 363 b 136 557 306 403 128 425 b 163 624 138 585 147 608 z "},"+":{"ha":757,"x_min":0,"x_max":0,"o":"m 46 368 l 718 368 l 718 390 l 46 390 z m 393 43 l 393 715 l 371 715 l 371 43 z "},"×":{"ha":551,"x_min":0,"x_max":0,"o":"m 31 608 l 506 133 l 521 149 l 46 624 z m 46 133 l 521 608 l 506 624 l 31 149 z "},"=":{"ha":672,"x_min":0,"x_max":0,"o":"m 39 493 l 642 493 l 642 515 l 39 515 z m 39 243 l 642 243 l 642 265 l 39 265 z "},"_":{"ha":653,"x_min":0,"x_max":0,"o":"m 22 -51 l 625 -51 l 625 -29 l 22 -29 z "},"°":{"ha":300,"x_min":0,"x_max":0,"o":"m 31 836 b 149 707 31 760 82 707 b 268 836 217 707 268 760 b 149 964 268 911 217 964 b 31 836 82 964 31 911 z m 47 836 b 149 944 47 900 92 944 b 251 836 207 944 251 900 b 149 725 251 771 207 725 b 47 836 92 725 47 771 z "},"|":{"ha":117,"x_min":0,"x_max":0,"o":"m 53 -164 l 75 -164 l 75 1000 l 53 1000 z "},"&":{"ha":950,"x_min":0,"x_max":0,"o":"m 739 0 l 893 0 l 744 147 b 663 564 883 354 672 468 l 718 564 l 718 589 l 538 589 l 538 564 b 729 163 538 415 867 367 l 329 604 b 256 903 271 669 110 804 b 535 718 367 978 501 826 l 629 792 b 243 914 582 946 371 997 b 206 576 121 835 88 701 b 28 324 113 533 28 447 b 383 -11 28 128 182 -11 b 663 75 501 -11 581 19 z m 649 90 b 185 192 481 -32 292 57 b 214 564 81 322 86 501 z m 893 0 l 935 0 l 935 21 l 860 21 z "},"":{"ha":725,"x_min":0,"x_max":0,"o":"m 132 -301 b 390 -26 289 -301 361 -93 l 693 675 l 746 675 l 746 694 l 582 694 l 582 675 b 629 581 638 675 656 643 l 442 143 l 211 675 l 286 675 l 286 694 l 38 694 l 38 675 l 90 675 l 381 0 l 347 -79 b 158 -190 322 -136 279 -190 b 56 -154 107 -190 49 -175 b 382 0 86 -60 361 -10 l 375 19 b 32 -147 314 -6 81 -39 b 132 -301 -3 -225 8 -301 z "},"":{"ha":739,"x_min":0,"x_max":0,"o":"m 58 408 b 363 107 58 228 181 107 b 671 408 549 107 671 228 b 363 708 671 588 549 708 b 58 408 181 708 58 588 z m 169 632 b 518 504 247 690 411 640 b 554 182 624 369 635 242 b 206 307 475 125 313 172 b 169 632 99 443 89 572 z m 519 629 b 628 658 547 631 597 644 b 718 763 678 679 707 719 b 650 789 719 768 672 782 l 650 789 b 518 653 639 739 582 638 b 507 656 517 653 508 654 z m 85 75 b 631 -146 -69 -196 703 -6 b 54 -169 518 -365 203 29 l 118 -256 b 651 -153 232 -153 522 -372 b 129 97 843 172 0 -78 b 251 193 147 121 217 185 l 224 203 b 85 75 188 193 101 103 z "},"˜":{"ha":421,"x_min":0,"x_max":0,"o":"m 143 935 b 297 869 192 935 236 869 b 390 939 332 869 369 906 l 383 946 b 294 900 360 914 344 900 b 143 965 249 900 204 965 b 31 893 96 965 53 928 l 35 882 b 143 935 61 922 92 935 z "},"ˇ":{"ha":364,"x_min":0,"x_max":0,"o":"m 183 876 l 332 985 l 319 993 l 183 931 l 49 993 l 36 985 z "},"`":{"ha":269,"x_min":0,"x_max":0,"o":"m 231 858 l 238 867 l 75 975 l 33 925 z "},"ˆ":{"ha":368,"x_min":0,"x_max":0,"o":"m 178 972 l 29 864 l 42 856 l 178 918 l 313 856 l 325 864 z "},"¨":{"ha":344,"x_min":0,"x_max":0,"o":"m 200 899 b 256 843 200 864 221 843 b 310 899 289 843 310 864 b 256 953 310 932 289 953 b 200 899 221 953 200 932 z m 29 899 b 85 843 29 864 50 843 b 139 899 118 843 139 864 b 85 953 139 932 118 953 b 29 899 50 953 29 932 z "},"´":{"ha":274,"x_min":0,"x_max":0,"o":"m 40 858 l 238 925 l 196 975 l 33 867 z "},"¸":{"ha":189,"x_min":0,"x_max":0,"o":"m 24 -79 l 40 -85 b 126 -132 88 -53 129 -69 b 88 -197 125 -161 114 -197 b 43 -118 58 -197 39 -143 l 13 -129 b 88 -201 7 -156 24 -201 b 163 -128 133 -201 163 -164 b 50 -72 163 -68 88 -40 l 88 -4 l 46 -3 z "},"á":{"ha":622,"x_min":0,"x_max":0,"o":"m 454 1 l 606 1 l 606 21 l 563 21 b 563 517 563 289 563 468 b 353 708 563 635 460 708 b 125 579 214 708 144 614 l 197 511 b 353 694 214 614 250 694 b 454 517 399 694 454 647 l 454 467 b 293 528 424 504 353 528 b 21 258 135 528 21 417 b 293 -14 21 96 138 -14 b 454 90 351 -14 424 21 z m 131 463 b 454 343 203 519 365 447 l 454 108 b 158 151 393 24 247 33 b 131 463 76 260 57 403 z m 257 757 l 454 824 l 413 874 l 250 765 z "},"â":{"ha":622,"x_min":0,"x_max":0,"o":"m 454 1 l 606 1 l 606 21 l 563 21 b 563 517 563 289 563 468 b 353 708 563 635 460 708 b 125 579 214 708 144 614 l 197 511 b 353 694 214 614 250 694 b 454 517 399 694 454 647 l 454 467 b 293 528 424 504 353 528 b 21 258 135 528 21 417 b 293 -14 21 96 138 -14 b 454 90 351 -14 424 21 z m 131 463 b 454 343 203 519 365 447 l 454 108 b 158 151 393 24 247 33 b 131 463 76 260 57 403 z m 367 882 l 218 774 l 231 765 l 367 828 l 501 765 l 514 774 z "},"à":{"ha":622,"x_min":0,"x_max":0,"o":"m 454 1 l 606 1 l 606 21 l 563 21 b 563 517 563 289 563 468 b 353 708 563 635 460 708 b 125 579 214 708 144 614 l 197 511 b 353 694 214 614 250 694 b 454 517 399 694 454 647 l 454 467 b 293 528 424 504 353 528 b 21 258 135 528 21 417 b 293 -14 21 96 138 -14 b 454 90 351 -14 424 21 z m 131 463 b 454 343 203 519 365 447 l 454 108 b 158 151 393 24 247 33 b 131 463 76 260 57 403 z m 472 771 l 479 779 l 317 888 l 275 838 z "},"ä":{"ha":622,"x_min":0,"x_max":0,"o":"m 454 1 l 606 1 l 606 21 l 563 21 b 563 517 563 289 563 468 b 353 708 563 635 460 708 b 125 579 214 708 144 614 l 197 511 b 353 694 214 614 250 694 b 454 517 399 694 454 647 l 454 467 b 293 528 424 504 353 528 b 21 258 135 528 21 417 b 293 -14 21 96 138 -14 b 454 90 351 -14 424 21 z m 131 463 b 454 343 203 519 365 447 l 454 108 b 158 151 393 24 247 33 b 131 463 76 260 57 403 z m 368 800 b 424 744 368 765 389 744 b 478 800 457 744 478 765 b 424 854 478 833 457 854 b 368 800 389 854 368 833 z m 197 800 b 253 744 197 765 218 744 b 307 800 286 744 307 765 b 253 854 307 833 286 854 b 197 800 218 854 197 833 z "},"å":{"ha":622,"x_min":0,"x_max":0,"o":"m 454 1 l 606 1 l 606 21 l 563 21 b 563 517 563 289 563 468 b 353 708 563 635 460 708 b 125 579 214 708 144 614 l 197 511 b 353 694 214 614 250 694 b 454 517 399 694 454 647 l 454 467 b 293 528 424 504 353 528 b 21 258 135 528 21 417 b 293 -14 21 96 138 -14 b 454 90 351 -14 424 21 z m 131 463 b 454 343 203 519 365 447 l 454 108 b 158 151 393 24 247 33 b 131 463 76 260 57 403 z m 226 857 b 315 768 226 803 261 768 b 401 857 367 768 401 803 b 315 944 401 910 367 944 b 226 857 261 944 226 910 z m 250 857 b 315 921 250 896 274 921 b 378 857 354 921 378 896 b 315 793 378 817 354 793 b 250 857 274 793 250 817 z "},"ã":{"ha":622,"x_min":0,"x_max":0,"o":"m 454 1 l 606 1 l 606 21 l 563 21 b 563 517 563 289 563 468 b 353 708 563 635 460 708 b 125 579 214 708 144 614 l 197 511 b 353 694 214 614 250 694 b 454 517 399 694 454 647 l 454 467 b 293 528 424 504 353 528 b 21 258 135 528 21 417 b 293 -14 21 96 138 -14 b 454 90 351 -14 424 21 z m 131 463 b 454 343 203 519 365 447 l 454 108 b 158 151 393 24 247 33 b 131 463 76 260 57 403 z m 293 804 b 447 739 342 804 386 739 b 540 808 482 739 519 775 l 533 815 b 444 769 510 783 494 769 b 293 835 399 769 354 835 b 181 763 246 835 203 797 l 185 751 b 293 804 211 792 242 804 z "},"æ":{"ha":1149,"x_min":0,"x_max":0,"o":"m 454 1 l 563 1 b 563 194 563 71 563 136 b 829 -12 617 42 711 -12 b 1126 207 985 -12 1100 85 l 1097 218 b 1035 83 1092 161 1067 111 b 650 208 943 3 761 47 b 649 211 650 210 649 210 l 644 218 b 643 221 644 219 644 219 l 1088 582 b 829 708 1033 656 939 708 b 558 554 708 708 613 650 b 353 708 539 650 447 708 b 125 579 214 708 144 614 l 196 513 b 21 258 90 476 21 382 b 293 -14 21 96 138 -14 b 454 90 351 -14 424 21 z m 454 467 b 293 528 424 504 353 528 b 197 513 258 528 226 522 b 353 694 214 614 250 694 b 454 517 399 694 454 647 z m 631 239 b 631 615 563 351 518 514 b 985 524 725 697 919 599 z m 131 463 b 454 343 203 519 365 447 l 454 108 b 158 151 393 24 247 33 b 131 463 76 260 57 403 z "},"ç":{"ha":661,"x_min":0,"x_max":0,"o":"m 24 349 b 343 -12 24 132 151 -12 b 640 207 499 -12 614 85 l 611 218 b 549 83 606 161 581 111 b 164 208 451 -3 268 57 b 144 615 56 365 47 529 b 511 507 219 682 428 621 l 592 586 b 343 708 538 660 453 708 b 24 349 151 708 24 564 z m 235 -51 l 251 -57 b 338 -104 299 -25 340 -42 b 299 -169 336 -133 325 -169 b 254 -90 269 -169 250 -115 l 224 -101 b 299 -174 218 -128 235 -174 b 374 -100 344 -174 374 -136 b 261 -44 374 -40 299 -12 l 299 24 l 257 25 z "},"é":{"ha":661,"x_min":0,"x_max":0,"o":"m 24 349 b 343 -12 24 132 151 -12 b 640 207 499 -12 614 85 l 611 218 b 549 83 606 161 581 111 b 164 208 457 3 275 47 b 157 221 161 213 160 217 l 601 582 b 343 708 547 656 453 708 b 24 349 151 708 24 564 z m 144 239 b 144 615 53 392 51 533 b 499 524 239 697 433 599 z m 253 772 l 450 839 l 408 889 l 246 781 z "},"ê":{"ha":661,"x_min":0,"x_max":0,"o":"m 24 349 b 343 -12 24 132 151 -12 b 640 207 499 -12 614 85 l 611 218 b 549 83 606 161 581 111 b 164 208 457 3 275 47 b 157 221 161 213 160 217 l 601 582 b 343 708 547 656 453 708 b 24 349 151 708 24 564 z m 144 239 b 144 615 53 392 51 533 b 499 524 239 697 433 599 z m 332 889 l 183 781 l 196 772 l 332 835 l 467 772 l 479 781 z "},"è":{"ha":661,"x_min":0,"x_max":0,"o":"m 24 349 b 343 -12 24 132 151 -12 b 640 207 499 -12 614 85 l 611 218 b 549 83 606 161 581 111 b 164 208 457 3 275 47 b 157 221 161 213 160 217 l 601 582 b 343 708 547 656 453 708 b 24 349 151 708 24 564 z m 144 239 b 144 615 53 392 51 533 b 499 524 239 697 433 599 z m 426 775 l 433 783 l 271 892 l 229 842 z "},"ë":{"ha":661,"x_min":0,"x_max":0,"o":"m 24 349 b 343 -12 24 132 151 -12 b 640 207 499 -12 614 85 l 611 218 b 549 83 606 161 581 111 b 164 208 457 3 275 47 b 157 221 161 213 160 217 l 601 582 b 343 708 547 656 453 708 b 24 349 151 708 24 564 z m 144 239 b 144 615 53 392 51 533 b 499 524 239 697 433 599 z m 342 829 b 397 774 342 794 363 774 b 451 829 431 774 451 794 b 397 883 451 863 431 883 b 342 829 363 883 342 863 z m 171 829 b 226 774 171 794 192 774 b 281 829 260 774 281 794 b 226 883 281 863 260 883 b 171 829 192 883 171 863 z "},"í":{"ha":275,"x_min":0,"x_max":0,"o":"m 43 775 l 240 842 l 199 892 l 36 783 z m 193 696 l 21 696 l 21 676 l 82 676 l 82 19 l 21 19 l 21 0 l 254 0 l 254 19 l 193 19 z "},"î":{"ha":275,"x_min":0,"x_max":0,"o":"m 138 889 l -11 781 l 1 772 l 138 835 l 272 772 l 285 781 z m 193 696 l 21 696 l 21 676 l 82 676 l 82 19 l 21 19 l 21 0 l 254 0 l 254 19 l 193 19 z "},"ì":{"ha":275,"x_min":0,"x_max":0,"o":"m 233 775 l 240 783 l 78 892 l 36 842 z m 193 696 l 21 696 l 21 676 l 82 676 l 82 19 l 21 19 l 21 0 l 254 0 l 254 19 l 193 19 z "},"ï":{"ha":275,"x_min":0,"x_max":0,"o":"m 149 815 b 204 760 149 781 169 760 b 258 815 238 760 258 781 b 204 869 258 849 238 869 b 149 815 169 869 149 849 z m -22 815 b 33 760 -22 781 -1 760 b 88 815 67 760 88 781 b 33 869 88 849 67 869 b -22 815 -1 869 -22 849 z m 193 696 l 21 696 l 21 676 l 82 676 l 82 19 l 21 19 l 21 0 l 254 0 l 254 19 l 193 19 z "},"ı":{"ha":275,"x_min":0,"x_max":0,"o":"m 193 696 l 21 696 l 21 676 l 82 676 l 82 19 l 21 19 l 21 0 l 254 0 l 254 19 l 193 19 z "},"ñ":{"ha":725,"x_min":0,"x_max":0,"o":"m 193 694 l 21 694 l 21 675 l 82 675 l 82 18 l 21 18 l 21 -1 l 254 -1 l 254 18 l 193 18 l 193 521 b 379 675 208 563 279 675 b 536 489 525 675 536 563 l 536 18 l 475 18 l 475 -1 l 708 -1 l 708 18 l 647 18 l 647 518 b 432 701 647 588 586 701 b 193 558 275 701 204 590 z m 296 851 b 450 786 344 851 389 786 b 543 856 485 786 522 822 l 536 863 b 447 817 513 831 497 817 b 296 882 401 817 357 882 b 183 810 249 882 206 844 l 188 799 b 296 851 214 839 244 851 z "},"ó":{"ha":714,"x_min":0,"x_max":0,"o":"m 24 349 b 357 -12 24 135 168 -12 b 690 349 546 -12 690 135 b 357 708 690 561 546 708 b 24 349 168 708 24 561 z m 154 617 b 564 467 250 697 453 625 b 565 85 676 307 660 161 b 169 203 469 7 283 44 b 154 617 61 353 54 532 z m 263 775 l 460 842 l 418 892 l 256 783 z "},"ô":{"ha":714,"x_min":0,"x_max":0,"o":"m 24 349 b 357 -12 24 135 168 -12 b 690 349 546 -12 690 135 b 357 708 690 561 546 708 b 24 349 168 708 24 561 z m 154 617 b 564 467 250 697 453 625 b 565 85 676 307 660 161 b 169 203 469 7 283 44 b 154 617 61 353 54 532 z m 358 889 l 210 781 l 222 772 l 358 835 l 493 772 l 506 781 z "},"ò":{"ha":714,"x_min":0,"x_max":0,"o":"m 24 349 b 357 -12 24 135 168 -12 b 690 349 546 -12 690 135 b 357 708 690 561 546 708 b 24 349 168 708 24 561 z m 154 617 b 564 467 250 697 453 625 b 565 85 676 307 660 161 b 169 203 469 7 283 44 b 154 617 61 353 54 532 z m 453 775 l 460 783 l 297 892 l 256 842 z "},"ö":{"ha":714,"x_min":0,"x_max":0,"o":"m 24 349 b 357 -12 24 135 168 -12 b 690 349 546 -12 690 135 b 357 708 690 561 546 708 b 24 349 168 708 24 561 z m 154 617 b 564 467 250 697 453 625 b 565 85 676 307 660 161 b 169 203 469 7 283 44 b 154 617 61 353 54 532 z m 368 829 b 424 774 368 794 389 774 b 478 829 457 774 478 794 b 424 883 478 863 457 883 b 368 829 389 883 368 863 z m 197 829 b 253 774 197 794 218 774 b 307 829 286 774 307 794 b 253 883 307 863 286 883 b 197 829 218 883 197 863 z "},"õ":{"ha":714,"x_min":0,"x_max":0,"o":"m 24 349 b 357 -12 24 135 168 -12 b 690 349 546 -12 690 135 b 357 708 690 561 546 708 b 24 349 168 708 24 561 z m 154 617 b 564 467 250 697 453 625 b 565 85 676 307 660 161 b 169 203 469 7 283 44 b 154 617 61 353 54 532 z m 290 838 b 444 772 339 838 383 772 b 538 842 479 772 517 808 l 531 849 b 442 803 507 817 492 803 b 290 868 396 803 351 868 b 178 796 243 868 200 831 l 182 785 b 290 838 208 825 239 838 z "},"ø":{"ha":714,"x_min":0,"x_max":0,"o":"m 24 349 b 357 -12 24 135 168 -12 b 690 349 546 -12 690 135 b 357 708 690 561 546 708 b 24 349 168 708 24 561 z m 154 617 b 564 467 250 697 453 625 b 565 85 676 307 660 161 b 169 203 469 7 283 44 b 154 617 61 353 54 532 z m 94 -32 l 118 -32 l 610 736 l 586 736 z "},"œ":{"ha":1276,"x_min":0,"x_max":0,"o":"m 24 349 b 357 -12 24 135 168 -12 b 661 192 494 -12 610 65 b 954 -12 708 65 814 -12 b 1251 207 1110 -12 1225 85 l 1222 218 b 1160 83 1217 161 1192 111 b 775 208 1068 3 886 47 b 774 211 775 210 774 210 l 769 218 b 768 221 769 219 769 219 l 1213 582 b 954 708 1158 656 1064 708 b 661 504 814 708 708 631 b 357 708 610 629 494 708 b 24 349 168 708 24 561 z m 154 617 b 564 467 250 697 453 625 b 565 85 643 356 688 183 b 169 203 469 7 283 44 b 154 617 61 353 54 532 z m 756 239 b 756 615 664 392 663 533 b 1110 524 850 697 1044 599 z "},"š":{"ha":557,"x_min":0,"x_max":0,"o":"m 22 517 b 432 122 8 267 444 336 b 267 4 425 14 314 1 b 69 158 136 13 104 101 l 22 114 b 272 -11 57 58 129 -8 b 535 165 406 -14 522 44 b 125 575 558 419 111 360 b 296 692 132 682 243 694 b 458 563 407 685 435 600 l 506 608 b 292 707 481 646 428 704 b 22 517 140 710 31 643 z m 278 765 l 426 874 l 414 882 l 278 819 l 143 882 l 131 874 z "},"ú":{"ha":676,"x_min":0,"x_max":0,"o":"m 588 0 l 643 0 l 643 694 l 471 694 l 471 675 l 532 675 l 532 160 b 346 25 517 118 446 25 b 189 206 200 25 189 132 l 189 694 l 17 694 l 17 675 l 78 675 l 78 176 b 293 -7 78 107 139 -7 b 532 122 450 -7 521 90 l 532 96 z m 243 775 l 440 842 l 399 892 l 236 783 z "},"û":{"ha":676,"x_min":0,"x_max":0,"o":"m 588 0 l 643 0 l 643 694 l 471 694 l 471 675 l 532 675 l 532 160 b 346 25 517 118 446 25 b 189 206 200 25 189 132 l 189 694 l 17 694 l 17 675 l 78 675 l 78 176 b 293 -7 78 107 139 -7 b 532 122 450 -7 521 90 l 532 96 z m 339 889 l 190 781 l 203 772 l 339 835 l 474 772 l 486 781 z "},"ù":{"ha":676,"x_min":0,"x_max":0,"o":"m 588 0 l 643 0 l 643 694 l 471 694 l 471 675 l 532 675 l 532 160 b 346 25 517 118 446 25 b 189 206 200 25 189 132 l 189 694 l 17 694 l 17 675 l 78 675 l 78 176 b 293 -7 78 107 139 -7 b 532 122 450 -7 521 90 l 532 96 z m 433 775 l 440 783 l 278 892 l 236 842 z "},"ü":{"ha":676,"x_min":0,"x_max":0,"o":"m 588 0 l 643 0 l 643 694 l 471 694 l 471 675 l 532 675 l 532 160 b 346 25 517 118 446 25 b 189 206 200 25 189 132 l 189 694 l 17 694 l 17 675 l 78 675 l 78 176 b 293 -7 78 107 139 -7 b 532 122 450 -7 521 90 l 532 96 z m 386 829 b 442 774 386 794 407 774 b 496 829 475 774 496 794 b 442 883 496 863 475 883 b 386 829 407 883 386 863 z m 215 829 b 271 774 215 794 236 774 b 325 829 304 774 325 794 b 271 883 325 863 304 883 b 215 829 236 883 215 863 z "},"ý":{"ha":760,"x_min":0,"x_max":0,"o":"m 176 -293 b 347 -110 240 -278 301 -224 l 381 -26 l 681 674 l 736 674 l 736 693 l 542 693 l 542 674 b 603 546 597 674 638 625 l 429 142 l 199 674 l 274 674 l 274 693 l 25 693 l 25 674 l 78 674 l 368 -3 l 324 -110 b 135 -211 293 -182 201 -196 z m 340 775 l 538 842 l 496 892 l 333 783 z "},"ÿ":{"ha":760,"x_min":0,"x_max":0,"o":"m 176 -293 b 347 -110 240 -278 301 -224 l 381 -26 l 681 674 l 736 674 l 736 693 l 542 693 l 542 674 b 603 546 597 674 638 625 l 429 142 l 199 674 l 274 674 l 274 693 l 25 693 l 25 674 l 78 674 l 368 -3 l 324 -110 b 135 -211 293 -182 201 -196 z m 460 829 b 515 774 460 794 481 774 b 569 829 549 774 569 794 b 515 883 569 863 549 883 b 460 829 481 883 460 863 z m 289 829 b 344 774 289 794 310 774 b 399 829 378 774 399 794 b 344 883 399 863 378 883 b 289 829 310 883 289 863 z "},"ž":{"ha":628,"x_min":0,"x_max":0,"o":"m 590 -1 l 590 0 l 592 0 l 611 161 l 592 161 b 396 21 558 65 501 21 l 171 21 l 606 694 l 89 694 l 68 532 l 88 532 b 326 674 125 640 192 674 l 451 674 l 17 0 z m 314 779 l 463 888 l 450 896 l 314 833 l 179 896 l 167 888 z "},"Á":{"ha":949,"x_min":0,"x_max":0,"o":"m 233 417 l 232 397 l 617 397 l 617 417 z m 453 986 l 68 21 l 7 21 l 7 1 l 282 1 l 282 21 b 194 281 169 21 133 125 l 407 815 l 732 21 l 649 21 l 649 1 l 931 1 l 931 21 l 867 21 l 472 986 z m 379 1025 l 576 1092 l 535 1142 l 372 1033 z "},"Â":{"ha":949,"x_min":0,"x_max":0,"o":"m 233 417 l 232 397 l 617 397 l 617 417 z m 453 986 l 68 21 l 7 21 l 7 1 l 282 1 l 282 21 b 194 281 169 21 133 125 l 407 815 l 732 21 l 649 21 l 649 1 l 931 1 l 931 21 l 867 21 l 472 986 z m 475 1139 l 326 1031 l 339 1022 l 475 1085 l 610 1022 l 622 1031 z "},"À":{"ha":949,"x_min":0,"x_max":0,"o":"m 233 417 l 232 397 l 617 397 l 617 417 z m 453 986 l 68 21 l 7 21 l 7 1 l 282 1 l 282 21 b 194 281 169 21 133 125 l 407 815 l 732 21 l 649 21 l 649 1 l 931 1 l 931 21 l 867 21 l 472 986 z m 569 1025 l 576 1033 l 414 1142 l 372 1092 z "},"Ä":{"ha":949,"x_min":0,"x_max":0,"o":"m 233 417 l 232 397 l 617 397 l 617 417 z m 453 986 l 68 21 l 7 21 l 7 1 l 282 1 l 282 21 b 194 281 169 21 133 125 l 407 815 l 732 21 l 649 21 l 649 1 l 931 1 l 931 21 l 867 21 l 472 986 z m 485 1065 b 540 1010 485 1031 506 1010 b 594 1065 574 1010 594 1031 b 540 1119 594 1099 574 1119 b 485 1065 506 1119 485 1099 z m 314 1065 b 369 1010 314 1031 335 1010 b 424 1065 403 1010 424 1031 b 369 1119 424 1099 403 1119 b 314 1065 335 1119 314 1099 z "},"Å":{"ha":949,"x_min":0,"x_max":0,"o":"m 233 417 l 232 397 l 617 397 l 617 417 z m 453 986 l 68 21 l 7 21 l 7 1 l 282 1 l 282 21 b 194 281 169 21 133 125 l 407 815 l 732 21 l 649 21 l 649 1 l 931 1 l 931 21 l 867 21 l 472 986 z m 335 1096 b 424 1007 335 1042 369 1007 b 510 1096 475 1007 510 1042 b 424 1183 510 1149 475 1183 b 335 1096 369 1183 335 1149 z m 358 1096 b 424 1160 358 1135 382 1160 b 486 1096 463 1160 486 1135 b 424 1032 486 1056 463 1032 b 358 1096 382 1032 358 1056 z "},"Ã":{"ha":949,"x_min":0,"x_max":0,"o":"m 233 417 l 232 397 l 617 397 l 617 417 z m 453 986 l 68 21 l 7 21 l 7 1 l 282 1 l 282 21 b 194 281 169 21 133 125 l 407 815 l 732 21 l 649 21 l 649 1 l 931 1 l 931 21 l 867 21 l 472 986 z m 407 1101 b 561 1036 456 1101 500 1036 b 654 1106 596 1036 633 1072 l 647 1113 b 558 1067 624 1081 608 1067 b 407 1132 513 1067 468 1132 b 294 1060 360 1132 317 1094 l 299 1049 b 407 1101 325 1089 356 1101 z "},"Æ":{"ha":1449,"x_min":0,"x_max":0,"o":"m 679 972 l 679 953 l 736 953 l 736 951 l 96 21 l 35 21 l 35 1 l 338 1 l 338 21 b 282 253 225 21 186 108 l 378 397 l 736 397 l 736 21 l 649 21 l 649 1 l 1371 0 l 1389 196 l 1369 196 b 1092 21 1328 76 1233 21 l 867 21 l 867 524 l 893 524 b 1167 404 1035 524 1167 524 l 1186 404 l 1186 663 l 1167 663 b 893 543 1167 543 1035 543 l 867 543 l 867 951 l 1050 951 b 1328 776 1192 951 1286 896 l 1347 776 l 1329 972 z m 393 417 l 736 910 l 736 417 z "},"Ç":{"ha":906,"x_min":0,"x_max":0,"o":"m 31 488 b 474 -12 31 188 207 -12 b 885 292 689 -12 849 122 l 844 307 b 763 117 836 228 806 154 b 183 293 635 4 338 71 b 194 861 28 518 67 746 b 721 707 324 976 635 825 l 818 817 b 474 986 743 919 625 986 b 31 488 207 986 31 786 z m 335 -61 l 351 -67 b 438 -114 399 -35 440 -51 b 399 -179 436 -143 425 -179 b 354 -100 369 -179 350 -125 l 324 -111 b 399 -183 318 -137 335 -183 b 474 -110 444 -183 474 -146 b 361 -54 474 -50 399 -22 l 399 14 l 357 15 z "},"É":{"ha":757,"x_min":0,"x_max":0,"o":"m 21 0 l 713 0 l 731 196 l 711 196 b 433 21 669 76 575 21 l 207 21 l 207 524 l 235 524 b 508 404 376 524 508 524 l 528 404 l 528 663 l 508 663 b 235 543 508 543 376 543 l 207 543 l 207 951 l 392 951 b 669 776 533 951 628 896 l 689 776 l 671 972 l 21 972 l 21 953 l 82 953 l 82 19 l 21 19 z m 283 1025 l 481 1092 l 439 1142 l 276 1033 z "},"Ê":{"ha":757,"x_min":0,"x_max":0,"o":"m 21 0 l 713 0 l 731 196 l 711 196 b 433 21 669 76 575 21 l 207 21 l 207 524 l 235 524 b 508 404 376 524 508 524 l 528 404 l 528 663 l 508 663 b 235 543 508 543 376 543 l 207 543 l 207 951 l 392 951 b 669 776 533 951 628 896 l 689 776 l 671 972 l 21 972 l 21 953 l 82 953 l 82 19 l 21 19 z m 379 1139 l 231 1031 l 243 1022 l 379 1085 l 514 1022 l 526 1031 z "},"È":{"ha":757,"x_min":0,"x_max":0,"o":"m 21 0 l 713 0 l 731 196 l 711 196 b 433 21 669 76 575 21 l 207 21 l 207 524 l 235 524 b 508 404 376 524 508 524 l 528 404 l 528 663 l 508 663 b 235 543 508 543 376 543 l 207 543 l 207 951 l 392 951 b 669 776 533 951 628 896 l 689 776 l 671 972 l 21 972 l 21 953 l 82 953 l 82 19 l 21 19 z m 474 1025 l 481 1033 l 318 1142 l 276 1092 z "},"Ë":{"ha":757,"x_min":0,"x_max":0,"o":"m 21 0 l 713 0 l 731 196 l 711 196 b 433 21 669 76 575 21 l 207 21 l 207 524 l 235 524 b 508 404 376 524 508 524 l 528 404 l 528 663 l 508 663 b 235 543 508 543 376 543 l 207 543 l 207 951 l 392 951 b 669 776 533 951 628 896 l 689 776 l 671 972 l 21 972 l 21 953 l 82 953 l 82 19 l 21 19 z m 403 1093 b 458 1038 403 1058 424 1038 b 513 1093 492 1038 513 1058 b 458 1147 513 1126 492 1147 b 403 1093 424 1147 403 1126 z m 232 1093 b 288 1038 232 1058 253 1038 b 342 1093 321 1038 342 1058 b 288 1147 342 1126 321 1147 b 232 1093 253 1147 232 1126 z "},"Í":{"ha":289,"x_min":0,"x_max":0,"o":"m 207 953 l 268 953 l 268 972 l 21 972 l 21 953 l 82 953 l 82 18 l 21 18 l 21 -1 l 268 -1 l 268 18 l 207 18 z m 50 1025 l 247 1092 l 206 1142 l 43 1033 z "},"Î":{"ha":289,"x_min":0,"x_max":0,"o":"m 207 953 l 268 953 l 268 972 l 21 972 l 21 953 l 82 953 l 82 18 l 21 18 l 21 -1 l 268 -1 l 268 18 l 207 18 z m 144 1153 l -4 1044 l 8 1036 l 144 1099 l 279 1036 l 292 1044 z "},"Ì":{"ha":289,"x_min":0,"x_max":0,"o":"m 207 953 l 268 953 l 268 972 l 21 972 l 21 953 l 82 953 l 82 18 l 21 18 l 21 -1 l 268 -1 l 268 18 l 207 18 z m 240 1025 l 247 1033 l 85 1142 l 43 1092 z "},"Ï":{"ha":289,"x_min":0,"x_max":0,"o":"m 207 953 l 268 953 l 268 972 l 21 972 l 21 953 l 82 953 l 82 18 l 21 18 l 21 -1 l 268 -1 l 268 18 l 207 18 z m 172 1093 b 228 1038 172 1058 193 1038 b 282 1093 261 1038 282 1058 b 228 1147 282 1126 261 1147 b 172 1093 193 1147 172 1126 z m 1 1093 b 57 1038 1 1058 22 1038 b 111 1093 90 1038 111 1058 b 57 1147 111 1126 90 1147 b 1 1093 22 1147 1 1126 z "},"Ñ":{"ha":824,"x_min":0,"x_max":0,"o":"m 21 0 l 283 0 l 283 19 b 103 290 171 19 103 126 l 103 850 l 732 -14 l 742 -14 l 742 953 l 803 953 l 803 972 l 540 972 l 540 953 b 721 682 653 953 721 846 l 721 226 l 175 972 l 21 972 l 21 953 l 82 953 l 82 19 l 21 19 z m 344 1101 b 499 1036 393 1101 438 1036 b 592 1106 533 1036 571 1072 l 585 1113 b 496 1067 561 1081 546 1067 b 344 1132 450 1067 406 1132 b 232 1060 297 1132 254 1094 l 236 1049 b 344 1101 263 1089 293 1101 z "},"Ó":{"ha":986,"x_min":0,"x_max":0,"o":"m 31 488 b 493 -14 31 188 226 -14 b 956 488 760 -14 956 188 b 493 986 956 786 760 986 b 31 488 226 986 31 786 z m 207 861 b 807 665 344 956 647 892 b 785 114 965 442 919 213 b 190 282 650 15 350 58 b 207 861 29 508 69 767 z m 399 1025 l 596 1092 l 554 1142 l 392 1033 z "},"Ô":{"ha":986,"x_min":0,"x_max":0,"o":"m 31 488 b 493 -14 31 188 226 -14 b 956 488 760 -14 956 188 b 493 986 956 786 760 986 b 31 488 226 986 31 786 z m 207 861 b 807 665 344 956 647 892 b 785 114 965 442 919 213 b 190 282 650 15 350 58 b 207 861 29 508 69 767 z m 494 1153 l 346 1044 l 358 1036 l 494 1099 l 629 1036 l 642 1044 z "},"Ò":{"ha":986,"x_min":0,"x_max":0,"o":"m 31 488 b 493 -14 31 188 226 -14 b 956 488 760 -14 956 188 b 493 986 956 786 760 986 b 31 488 226 986 31 786 z m 207 861 b 807 665 344 956 647 892 b 785 114 965 442 919 213 b 190 282 650 15 350 58 b 207 861 29 508 69 767 z m 589 1025 l 596 1033 l 433 1142 l 392 1092 z "},"Ö":{"ha":986,"x_min":0,"x_max":0,"o":"m 31 488 b 493 -14 31 188 226 -14 b 956 488 760 -14 956 188 b 493 986 956 786 760 986 b 31 488 226 986 31 786 z m 207 861 b 807 665 344 956 647 892 b 785 114 965 442 919 213 b 190 282 650 15 350 58 b 207 861 29 508 69 767 z m 504 1093 b 560 1038 504 1058 525 1038 b 614 1093 593 1038 614 1058 b 560 1147 614 1126 593 1147 b 504 1093 525 1147 504 1126 z m 333 1093 b 389 1038 333 1058 354 1038 b 443 1093 422 1038 443 1058 b 389 1147 443 1126 422 1147 b 333 1093 354 1147 333 1126 z "},"Õ":{"ha":986,"x_min":0,"x_max":0,"o":"m 31 488 b 493 -14 31 188 226 -14 b 956 488 760 -14 956 188 b 493 986 956 786 760 986 b 31 488 226 986 31 786 z m 207 861 b 807 665 344 956 647 892 b 785 114 965 442 919 213 b 190 282 650 15 350 58 b 207 861 29 508 69 767 z m 426 1101 b 581 1036 475 1101 519 1036 b 674 1106 615 1036 653 1072 l 667 1113 b 578 1067 643 1081 628 1067 b 426 1132 532 1067 488 1132 b 314 1060 379 1132 336 1094 l 318 1049 b 426 1101 344 1089 375 1101 z "},"Ø":{"ha":986,"x_min":0,"x_max":0,"o":"m 31 488 b 493 -14 31 188 226 -14 b 956 488 760 -14 956 188 b 493 986 956 786 760 986 b 31 488 226 986 31 786 z m 207 861 b 807 665 344 956 647 892 b 785 114 965 442 919 213 b 190 282 650 15 350 58 b 207 861 29 508 69 767 z m 233 -53 l 257 -53 l 725 1014 l 701 1014 z "},"Œ":{"ha":1743,"x_min":0,"x_max":0,"o":"m 924 0 l 1615 0 l 1633 196 l 1614 196 b 1336 21 1572 76 1478 21 l 1110 21 l 1110 524 l 1138 524 b 1411 404 1279 524 1411 524 l 1431 404 l 1431 663 l 1411 663 b 1138 543 1411 543 1279 543 l 1110 543 l 1110 951 l 1294 951 b 1572 776 1436 951 1531 896 l 1592 776 l 1574 972 l 924 972 l 924 953 l 985 953 l 985 19 l 924 19 z m 31 488 b 493 -14 31 188 226 -14 b 956 488 760 -14 956 188 b 493 986 956 786 760 986 b 31 488 226 986 31 786 z m 207 861 b 807 665 344 956 647 892 b 785 114 965 442 919 213 b 190 282 650 15 350 58 b 207 861 29 508 69 767 z "},"Š":{"ha":740,"x_min":0,"x_max":0,"o":"m 32 731 b 574 185 13 406 590 476 b 332 15 565 28 415 10 b 88 219 181 26 133 140 l 31 164 b 358 -7 76 88 172 -3 b 708 233 538 -10 693 69 b 165 792 738 560 149 490 b 397 956 174 943 322 960 b 611 786 539 947 581 853 l 669 842 b 389 978 624 900 567 974 b 32 731 186 982 42 890 z m 369 1154 l 518 1263 l 506 1271 l 369 1208 l 235 1271 l 222 1263 z "},"Ú":{"ha":847,"x_min":0,"x_max":0,"o":"m 207 953 l 268 953 l 268 972 l 21 972 l 21 953 l 82 953 l 82 338 b 450 -21 82 64 238 -21 b 765 338 664 -21 765 103 l 765 953 l 826 953 l 826 972 l 581 972 l 581 953 b 744 686 707 953 744 779 l 744 338 b 457 3 744 121 657 3 b 207 338 263 3 207 142 z m 329 1136 l 526 1203 l 485 1253 l 322 1144 z "},"Û":{"ha":847,"x_min":0,"x_max":0,"o":"m 207 953 l 268 953 l 268 972 l 21 972 l 21 953 l 82 953 l 82 338 b 450 -21 82 64 238 -21 b 765 338 664 -21 765 103 l 765 953 l 826 953 l 826 972 l 581 972 l 581 953 b 744 686 707 953 744 779 l 744 338 b 457 3 744 121 657 3 b 207 338 263 3 207 142 z m 425 1250 l 276 1142 l 289 1133 l 425 1196 l 560 1133 l 572 1142 z "},"Ù":{"ha":847,"x_min":0,"x_max":0,"o":"m 207 953 l 268 953 l 268 972 l 21 972 l 21 953 l 82 953 l 82 338 b 450 -21 82 64 238 -21 b 765 338 664 -21 765 103 l 765 953 l 826 953 l 826 972 l 581 972 l 581 953 b 744 686 707 953 744 779 l 744 338 b 457 3 744 121 657 3 b 207 338 263 3 207 142 z m 519 1136 l 526 1144 l 364 1253 l 322 1203 z "},"Ü":{"ha":847,"x_min":0,"x_max":0,"o":"m 207 953 l 268 953 l 268 972 l 21 972 l 21 953 l 82 953 l 82 338 b 450 -21 82 64 238 -21 b 765 338 664 -21 765 103 l 765 953 l 826 953 l 826 972 l 581 972 l 581 953 b 744 686 707 953 744 779 l 744 338 b 457 3 744 121 657 3 b 207 338 263 3 207 142 z m 435 1176 b 490 1121 435 1142 456 1121 b 544 1176 524 1121 544 1142 b 490 1231 544 1210 524 1231 b 435 1176 456 1231 435 1210 z m 264 1176 b 319 1121 264 1142 285 1121 b 374 1176 353 1121 374 1142 b 319 1231 374 1210 353 1231 b 264 1176 285 1231 264 1210 z "},"Ý":{"ha":888,"x_min":0,"x_max":0,"o":"m 229 953 l 313 953 l 313 972 l 21 972 l 21 953 l 85 953 l 388 418 l 388 18 l 326 18 l 326 -1 l 574 -1 l 574 18 l 513 18 l 513 453 l 806 953 l 867 953 l 867 972 l 603 972 l 603 953 b 688 794 688 953 735 876 l 501 474 z m 349 1136 l 546 1203 l 504 1253 l 342 1144 z "},"Ÿ":{"ha":888,"x_min":0,"x_max":0,"o":"m 229 953 l 313 953 l 313 972 l 21 972 l 21 953 l 85 953 l 388 418 l 388 18 l 326 18 l 326 -1 l 574 -1 l 574 18 l 513 18 l 513 453 l 806 953 l 867 953 l 867 972 l 603 972 l 603 953 b 688 794 688 953 735 876 l 501 474 z m 454 1176 b 510 1121 454 1142 475 1121 b 564 1176 543 1121 564 1142 b 510 1231 564 1210 543 1231 b 454 1176 475 1231 454 1210 z m 283 1176 b 339 1121 283 1142 304 1121 b 393 1176 372 1121 393 1142 b 339 1231 393 1210 372 1231 b 283 1176 304 1231 283 1210 z "},"'":{"ha":210,"x_min":0,"x_max":0,"o":"m 51 833 b 108 772 51 797 75 772 b 160 806 131 772 150 785 b 68 733 154 746 68 733 b 103 717 68 733 88 717 b 165 833 157 719 165 803 b 108 894 165 869 140 894 b 51 833 75 894 51 869 z "},"ﬀ":{"ha":739,"x_min":0,"x_max":0,"o":"m 193 694 b 236 928 194 771 192 889 b 438 846 297 982 401 894 l 438 846 b 497 904 457 863 500 900 b 354 974 465 946 417 974 b 82 694 154 972 81 826 l 82 19 l 21 19 l 21 0 l 254 0 l 254 19 l 193 19 z m 21 675 l 414 675 l 414 694 l 21 694 z m 501 694 b 544 928 503 771 500 889 b 746 846 606 982 710 894 l 746 846 b 806 904 765 863 808 900 b 663 974 774 946 725 974 b 390 694 463 972 389 826 l 390 19 l 329 19 l 329 0 l 563 0 l 563 19 l 501 19 z m 329 675 l 722 675 l 722 694 l 329 694 z "},"\"":{"ha":331,"x_min":0,"x_max":0,"o":"m 24 833 b 81 772 24 797 47 772 b 132 806 103 772 122 785 b 40 733 126 746 40 733 b 75 717 40 733 60 717 b 138 833 129 719 138 803 b 81 894 138 869 113 894 b 24 833 47 894 24 869 z m 176 833 b 233 772 176 797 200 772 b 285 806 256 772 275 785 b 193 733 279 746 193 733 b 228 717 193 733 213 717 b 290 833 282 719 290 803 b 233 894 290 869 265 894 b 176 833 200 894 176 869 z "}}}
